# Blender v2.77 (sub 0) OBJ File: 'tree1.blend'
# www.blender.org
o Cube_Cube.001
v -7.242782 11.043410 -2.208330
v -4.558317 9.040380 -2.272407
v -6.197249 8.980924 0.478052
v -7.210191 12.297815 0.761407
v -6.197250 14.407187 -1.813979
v -4.558318 12.393968 -3.688948
v -2.866622 9.056826 0.657745
v -4.505554 11.070045 2.532714
v -4.505555 14.423632 1.116173
v -2.866623 14.483088 -1.634286
v -1.853682 11.166197 -1.917642
v -1.821091 12.420602 1.052095
v 0.750954 11.531761 -2.507601
v 3.928227 9.161018 -2.583441
v 1.988423 9.090646 0.671942
v 0.789528 13.016447 1.007315
v 1.988422 15.513052 -2.040857
v 3.928226 13.130251 -4.260029
v 5.930481 9.180483 0.884622
v 3.990676 11.563284 3.103794
v 3.990675 15.532516 1.427207
v 5.930480 15.602889 -1.828176
v 7.129375 11.677088 -2.163549
v 7.167948 13.161774 1.351367
v -5.138983 12.109440 -3.323100
v -0.477702 8.715093 -3.656549
v -3.432403 8.769863 1.233623
v -5.258554 14.325609 1.923565
v -3.432404 17.704411 -2.540293
v -0.477703 14.236900 -5.988938
v 2.283581 8.833407 1.384059
v -0.671120 12.300919 4.832704
v -0.671121 17.822727 2.500315
v 2.283580 17.767956 -2.389858
v 4.109732 12.212210 -3.079800
v 3.990160 14.428379 2.166865
v -1.898283 -1.108773 2.042178
v -0.885625 6.105867 0.885625
v -1.733667 -1.108773 -1.471456
v -0.885625 6.105867 -0.885625
v 1.271628 -1.108773 1.721452
v 0.718860 6.105867 0.885625
v 1.414017 -1.108773 -1.660840
v 0.706908 6.105867 -0.885625
v -1.128655 0.613169 1.133965
v -1.128655 0.613169 -1.155250
v 1.160559 0.613169 -1.155250
v 1.160559 0.613169 1.133965
v -0.885625 7.662336 0.885625
v -0.885625 7.662336 -0.885625
v 0.885625 7.662336 0.885625
v 0.885625 7.662336 -0.885625
v 1.412632 10.581388 0.384626
v 1.448210 10.578938 -0.418676
v 2.161358 10.501761 0.418676
v 2.196936 10.499310 -0.384626
v -1.958294 6.576910 0.737226
v -1.958294 6.576910 -0.771206
v -1.803185 7.893324 0.457079
v -1.803185 7.893324 -0.604344
v -3.402189 9.816851 0.284010
v -3.402190 9.714401 -0.317989
v -2.953406 9.994464 0.284010
v -2.953406 9.994464 -0.317989
v 1.737612 8.570463 0.566523
v 0.630440 8.655484 0.251600
v 0.794046 8.621480 -0.431124
v 1.747999 8.569748 -0.556583
v -0.999568 6.734884 -2.101375
v 0.308433 6.734884 -2.101375
v -0.765177 7.884278 -2.101375
v 0.173334 7.884278 -2.101375
v -1.327363 10.141639 -3.984093
v -0.891408 10.141639 -3.984093
v -1.327363 10.212800 -3.607670
v -0.891408 10.212800 -3.607670
vt 0.1129 0.6699
vt 0.2475 0.6762
vt 0.1761 0.7607
vt 0.6162 0.7225
vt 0.7471 0.6549
vt 0.7220 0.7667
vt 0.0720 0.7982
vt 0.8908 0.6872
vt 0.7997 0.7567
vt 0.6601 0.8631
vt 0.2762 0.8078
vt 0.1721 0.8453
vt 0.8839 0.8344
vt 0.7695 0.8290
vt 0.5164 0.8308
vt 0.1007 0.9298
vt 0.3669 0.9074
vt 0.2353 0.9361
vt 0.7841 0.9427
vt 0.6188 0.8237
vt 0.7475 0.8808
vt 0.5849 0.9604
vt 0.6856 0.7543
vt 0.4783 0.8142
vt 0.5921 0.7312
vt 0.8208 0.7153
vt 0.2140 0.6739
vt 0.3765 0.5943
vt 0.3427 0.7310
vt 0.1406 0.8394
vt 0.2759 0.8003
vt 0.4906 0.6336
vt 0.6706 0.6143
vt 0.4832 0.7405
vt 0.2909 0.9403
vt 0.3694 0.8235
vt 0.4709 0.9211
vt 0.3457 0.6210
vt 0.4960 0.7078
vt 0.3692 0.7540
vt 0.5555 0.7078
vt 0.7058 0.6210
vt 0.6824 0.7540
vt 0.2782 0.7379
vt 0.1748 0.6512
vt 0.8174 0.7540
vt 0.6230 0.8247
vt 0.4367 0.8709
vt 0.3098 0.8247
vt 0.1748 0.8247
vt 0.7140 0.8408
vt 0.4962 0.8709
vt 0.8174 0.9275
vt 0.6465 0.9577
vt 0.2864 0.9577
vt 0.1662 0.1254
vt 0.1825 0.1882
vt 0.1595 0.1807
vt 0.1517 0.2401
vt 0.1318 0.2090
vt 0.0704 0.2949
vt 0.1283 0.0256
vt 0.0312 0.1546
vt 0.1298 0.1495
vt 0.5110 0.2559
vt 0.5265 0.1610
vt 0.5522 0.2040
vt 0.5549 0.0469
vt 0.4920 0.3460
vt 0.7418 0.2315
vt 0.8548 0.1573
vt 1.0068 0.3772
vt 0.6057 0.1895
vt 0.5873 0.2662
vt 0.6244 0.3498
vt 0.5728 0.2917
vt 0.4518 0.4842
vt 0.6134 0.5280
vt 0.9611 0.3727
vt 1.0027 0.3534
vt 0.7557 0.3889
vt 0.7227 0.3011
vt 0.7815 0.5033
vt 0.9536 0.3602
vt 0.5742 0.2360
vt 0.5463 0.2330
vt 0.5872 0.2284
vt 0.5865 0.2277
vt 0.5863 0.2285
vt 0.5795 0.2187
vt 0.5863 0.2282
vt 0.6998 0.1061
vt 0.5821 0.3010
vt 0.5471 0.3080
vt 0.5975 0.2958
vt 0.5508 0.2843
vt 0.5960 0.2982
vt 0.5947 0.2968
vt 0.5974 0.2970
vn -0.5650 -0.7459 -0.3528
vn -0.2981 -0.3714 -0.8793
vn -0.9440 -0.3000 0.1371
vn -0.9440 0.3074 -0.1195
vn -0.5650 0.2671 -0.7807
vn 0.3924 -0.3579 -0.8473
vn 0.0232 -0.9997 -0.0078
vn -0.6073 -0.2499 0.7541
vn -0.6073 0.7148 0.3466
vn 0.0232 0.6914 -0.7221
vn 0.6073 -0.7148 -0.3466
vn -0.0232 -0.6914 0.7221
vn -0.3924 0.3579 0.8473
vn -0.0232 0.9997 0.0078
vn 0.6073 0.2499 -0.7541
vn 0.9440 -0.3074 0.1195
vn 0.5650 -0.2671 0.7807
vn 0.2981 0.3714 0.8793
vn 0.5650 0.7459 0.3528
vn 0.9440 0.3000 -0.1371
vn -0.5700 -0.7498 -0.3360
vn -0.3297 -0.3673 -0.8697
vn -0.9394 -0.3231 0.1150
vn -0.9394 0.3077 -0.1514
vn -0.5700 0.2818 -0.7718
vn 0.3813 -0.3597 -0.8516
vn 0.0107 -0.9998 0.0176
vn -0.6005 -0.2899 0.7452
vn -0.6005 0.7364 0.3117
vn 0.0107 0.7097 -0.7044
vn 0.6005 -0.7364 -0.3117
vn -0.0107 -0.7097 0.7044
vn -0.3813 0.3597 0.8516
vn -0.0107 0.9998 -0.0176
vn 0.6005 0.2899 -0.7452
vn 0.9394 -0.3077 0.1514
vn 0.5700 -0.2818 0.7718
vn 0.3297 0.3673 0.8697
vn 0.5700 0.7498 0.3360
vn 0.9394 0.3231 -0.1150
vn -0.9435 0.3315 0.0000
vn 0.0000 0.2817 -0.9595
vn 0.9893 0.1456 0.0000
vn 0.0000 0.3229 0.9464
vn 0.0000 -1.0000 0.0000
vn -0.4021 -0.9156 0.0000
vn 0.0000 0.0452 0.9990
vn 0.9966 0.0823 0.0000
vn 0.0000 0.0490 -0.9988
vn -0.9990 0.0442 0.0000
vn -0.2619 0.1307 0.9562
vn 0.0000 0.0000 1.0000
vn 0.0000 0.9837 0.1796
vn 0.9943 -0.1065 -0.0067
vn 0.1057 0.9944 0.0016
vn -0.1233 0.1165 -0.9855
vn 0.9769 -0.2136 0.0092
vn -0.9212 0.3093 -0.2362
vn -0.0303 0.1292 -0.9912
vn -0.1370 0.0000 0.9906
vn 0.2441 0.9697 0.0000
vn -0.2931 0.0000 -0.9561
vn -0.5240 0.8397 -0.1429
vn 0.8772 0.4802 0.0000
vn 0.1892 0.1830 0.9647
vn -0.9084 -0.4181 0.0000
vn -0.4584 0.8754 -0.1534
vn 0.7249 -0.6889 0.0000
vn 0.0000 0.4282 -0.9037
vn 0.0000 0.5381 0.8429
vn 0.9151 0.1076 -0.3886
vn 0.0000 -0.8882 -0.4595
vn 0.8508 -0.0977 -0.5163
vn -0.9951 0.0000 -0.0986
vn 0.0000 0.9826 -0.1858
vn 0.0000 0.5432 0.8396
vn -0.8123 0.1656 0.5592
vn 0.0000 -0.4837 -0.8752
vn -0.3622 0.2347 0.9021
vn -0.0467 0.1180 0.9919
vn 0.0908 0.4326 0.8970
vn -0.2037 0.4891 0.8481
vn -0.0505 -0.0484 0.9976
vn 0.9960 0.0786 0.0419
vn 0.9722 -0.2301 0.0438
vn 0.9935 -0.1141 0.0000
vn 0.7305 -0.6828 0.0072
vn 0.9968 0.0799 -0.0067
vn 0.9237 0.3764 -0.0711
vn 0.9600 0.1128 -0.2563
vn -0.0961 0.4187 -0.9030
vn 0.0445 -0.0085 -0.9990
vn -0.0588 0.2003 -0.9780
vn -0.9617 0.1961 0.1916
vn -0.3680 0.9298 0.0000
vn -0.9961 -0.0868 0.0164
vn -0.5480 0.8365 0.0000
vn -0.9247 0.3785 -0.0421
vn -0.0480 0.1312 -0.9902
vn -0.0629 0.1009 -0.9929
vn -0.9148 -0.3982 0.0678
vn -0.9204 0.3886 -0.0431
s off
f 1/1/1 2/2/1 3/3/1
f 2/4/2 1/5/2 6/6/2
f 1/1/3 3/3/3 4/7/3
f 1/5/4 4/8/4 5/9/4
f 1/5/5 5/9/5 6/6/5
f 2/4/6 6/6/6 11/10/6
f 3/3/7 2/2/7 7/11/7
f 4/7/8 3/3/8 8/12/8
f 5/9/9 4/8/9 9/13/9
f 6/6/10 5/9/10 10/14/10
f 2/4/11 11/10/11 7/15/11
f 3/3/12 7/11/12 8/12/12
f 4/7/13 8/12/13 9/16/13
f 5/9/14 9/13/14 10/14/14
f 6/6/15 10/14/15 11/10/15
f 7/11/16 11/17/16 12/18/16
f 8/12/17 7/11/17 12/18/17
f 9/16/18 8/12/18 12/18/18
f 10/14/19 9/13/19 12/19/19
f 11/10/20 10/14/20 12/19/20
f 13/20/1 14/21/1 15/22/1
f 14/21/2 13/20/2 18/23/2
f 13/20/3 15/22/3 16/24/3
f 13/20/4 16/24/4 17/25/4
f 13/20/5 17/25/5 18/23/5
f 14/21/6 18/23/6 23/26/6
f 15/27/7 14/28/7 19/29/7
f 16/30/8 15/27/8 20/31/8
f 17/25/9 16/24/9 21/32/9
f 18/23/10 17/25/10 22/33/10
f 14/28/11 23/34/11 19/29/11
f 15/27/12 19/29/12 20/31/12
f 16/30/13 20/31/13 21/35/13
f 17/25/14 21/32/14 22/33/14
f 18/23/15 22/33/15 23/26/15
f 19/29/16 23/34/16 24/36/16
f 20/31/17 19/29/17 24/36/17
f 21/35/18 20/31/18 24/36/18
f 22/37/19 21/35/19 24/36/19
f 23/34/20 22/37/20 24/36/20
f 25/38/21 26/39/21 27/40/21
f 26/41/22 25/42/22 30/43/22
f 25/38/23 27/40/23 28/44/23
f 25/38/24 28/44/24 29/45/24
f 25/42/25 29/46/25 30/43/25
f 26/41/26 30/43/26 35/47/26
f 27/40/27 26/39/27 31/48/27
f 28/44/28 27/40/28 32/49/28
f 29/45/29 28/44/29 33/50/29
f 30/43/30 29/46/30 34/51/30
f 26/41/31 35/47/31 31/52/31
f 27/40/32 31/48/32 32/49/32
f 28/44/33 32/49/33 33/50/33
f 29/46/34 33/53/34 34/51/34
f 30/43/35 34/51/35 35/47/35
f 31/52/36 35/47/36 36/54/36
f 32/49/37 31/48/37 36/55/37
f 33/50/38 32/49/38 36/55/38
f 34/51/39 33/53/39 36/54/39
f 35/47/40 34/51/40 36/54/40
f 45/56/41 46/57/41 39/58/41
f 46/57/42 47/59/42 43/60/42
f 47/59/43 48/61/43 43/60/43
f 48/62/44 45/56/44 41/63/44
f 37/64/45 43/60/45 41/63/45
f 40/65/46 38/66/46 57/67/46
f 42/68/47 45/56/47 48/62/47
f 44/69/48 48/61/48 47/59/48
f 40/65/49 44/69/49 46/57/49
f 38/66/50 40/65/50 45/56/50
f 66/70/51 65/71/51 55/72/51
f 38/66/52 42/68/52 49/73/52
f 50/74/53 52/75/53 71/76/53
f 42/77/54 44/69/54 51/78/54
f 55/72/55 56/79/55 53/80/55
f 68/81/56 67/82/56 56/79/56
f 65/83/57 68/81/57 55/72/57
f 67/82/58 66/70/58 54/84/58
f 60/85/59 58/86/59 62/87/59
f 38/66/60 49/73/60 57/67/60
f 49/73/61 50/74/61 60/85/61
f 50/74/62 40/65/62 60/85/62
f 62/87/63 61/88/63 64/89/63
f 59/90/64 60/85/64 63/91/64
f 57/67/65 59/90/65 63/91/65
f 58/86/66 57/67/66 62/87/66
f 50/74/67 66/70/67 67/82/67
f 51/78/68 52/75/68 68/81/68
f 52/75/69 50/74/69 67/82/69
f 49/73/70 51/92/70 66/70/70
f 72/93/71 70/94/71 74/95/71
f 44/69/72 40/65/72 69/96/72
f 52/75/73 44/69/73 72/93/73
f 40/65/74 50/74/74 71/76/74
f 74/95/75 75/97/75 76/98/75
f 71/76/76 76/98/76 75/97/76
f 69/96/77 71/76/77 75/97/77
f 70/94/78 69/96/78 74/95/78
f 57/67/79 49/73/79 59/90/79
f 63/91/80 61/88/80 57/67/80
f 49/73/52 42/68/52 51/92/52
f 45/56/47 42/68/47 38/66/47
f 41/63/81 45/56/81 37/64/81
f 66/70/82 51/92/82 65/71/82
f 55/72/83 53/80/83 66/70/83
f 76/98/76 71/76/76 72/93/76
f 43/60/84 48/61/84 41/63/84
f 55/72/85 68/81/85 56/79/85
f 51/78/86 44/69/86 52/75/86
f 68/81/87 65/83/87 51/78/87
f 48/61/88 44/69/88 42/77/88
f 74/95/89 76/98/89 72/93/89
f 72/93/90 44/69/90 70/94/90
f 67/82/91 68/81/91 52/75/91
f 56/79/92 67/82/92 54/84/92
f 74/95/78 69/96/78 73/99/78
f 69/96/72 70/94/72 44/69/72
f 43/60/93 39/58/93 46/57/93
f 46/57/49 44/69/49 47/59/49
f 71/76/94 69/96/94 40/65/94
f 53/80/55 56/79/55 54/84/55
f 64/89/95 61/88/95 63/91/95
f 75/97/75 74/95/75 73/99/75
f 75/97/96 73/99/96 69/96/96
f 66/70/97 50/74/97 49/73/97
f 54/84/98 66/70/98 53/80/98
f 60/85/99 40/65/99 58/86/99
f 62/87/100 64/89/100 60/85/100
f 62/87/101 57/67/101 61/88/101
f 57/67/46 58/86/46 40/65/46
f 45/56/50 40/65/50 46/57/50
f 39/58/102 37/64/102 45/56/102
f 43/60/45 37/64/45 39/58/45
f 71/76/53 52/75/53 72/93/53
f 63/91/64 60/85/64 64/89/64
f 60/85/61 59/90/61 49/73/61
